<svg xmlns="http://www.w3.org/2000/svg" fill="currentColor" aria-label="pencil" viewBox="0 0 177 184"><path d="M146.1 8.7c-3.1.6-4.5 2-93.4 95.8l-25.6 27-9 20.1c-9.1 20-10 22.7-8.1 23.9.5.3 10.2-4 21.4-9.6l20.4-10.2 16.9-18.1A6364 6364 0 0 1 143 59.2a330 330 0 0 0 24.8-27.5c4.8-11-9-25.6-21.7-23m10.7 6.2a21 21 0 0 1 7.8 9.7c.8 3.2-1 7.5-4.6 10.9l-2.9 2.8-5.6-6.1a56 56 0 0 0-9.3-8.3l-4.1-2.6c-.9-.6 5.5-6.6 8.3-7.8 3-1.3 6.2-.8 10.4 1.4m-17.3 11.9c3 1.9 10.4 9.1 13 12.9 1.3 1.8 1.1 2.3-1.4 4.7l-2.9 2.8-6.7-6.7c-3.7-3.6-7.8-7.3-9.1-8.2-2.8-1.8-3-3-.7-5.5 2-2.3 4-2.3 7.8 0m-4.1 13.3c7.8 7.1 10.1 10.5 8.5 12.5-1 1.2-1.9.7-6.3-3.9-2.8-2.9-7-7-9.4-9.1-3.5-3-4.1-4-3.2-5.1 1.6-1.9 3.2-1 10.4 5.6m-9.6 2.7c1.7 1.3 3.2 2.8 3.2 3.2 0 .7-2.9 3.8-57.3 61.2l-30.1 31.7-1.3-2.9a7 7 0 0 0-3.9-4l-2.7-1.1 2.4-2.6 7.7-8.3 41-43.2a551 551 0 0 1 36.7-37zm12.3 12.5c.9 1.5-1.9 4.9-17.3 21-23.1 24.2-60.5 64-64.8 69l-3.3 3.8-1.1-2.6a10 10 0 0 0-4.5-4.4l-3.4-1.8 16.4-16.9c18.1-18.8 58.6-61.6 66.3-70.1l4.9-5.4 2.9 2.8c1.6 1.5 3.4 3.6 3.9 4.6M36.4 137.1c.8 1.2 1.2 2.8.9 3.5-.8 2.3 1.7 4.4 5.1 4.4q5.7-.2 5.6 5.2c0 2.4-1 3.2-10.6 8.1l-10.6 5.5-3.3-3.6-3.2-3.6 3.9-8.5 4.9-10.9c1.1-2.9 5.3-2.9 7.3-.1m-14.8 26c2 2.2 1.9 2.3-3.8 5.4-3.9 2.2-4 2-1.6-3 1.2-2.5 2.5-4.5 2.8-4.5q.8.2 2.6 2.1"/></svg>