<svg xmlns="http://www.w3.org/2000/svg" fill="currentColor" aria-label="calendar" viewBox="0 0 204 162"><path d="M39.6 8.3c-1 .7-2.1 2.9-2.5 4.7l-.7 3.5-7.3.2c-4.1.1-7.7.5-8.1 1S19.3 30 18.1 44l-5.6 66.9a454 454 0 0 0-2.7 42.3c.8.8 36.9 1.1 123.3.9l33.5-.1 6.7-5.5c6.6-5.5 6.7-5.5 13.6-5.5q6.8 0 7.4-1.3c.4-1.2-1.6-18.1-9.9-80.7-4.8-36.1-5.8-42.7-6.7-43.6a35 35 0 0 0-7.9-.9l-7.3-.2-.6-3.2C161 8.8 159.3 7 156 7s-5.8 2.5-6.6 6.8q-.6 3.4-2.8 3.2c-4.4 0-6.4-1.2-6.9-4q-1.4-5.9-6.8-6c-2.9 0-4.4 2-6.2 8-.4 1.2-1.5 1.5-4.6 1.2-3.5-.4-4.2-.8-4.7-3.1-2-8.3-12.4-7.9-12.4.6 0 3-1.3 3.6-6 2.8-3.2-.5-4-1.1-4-2.9 0-3.5-2.8-6.6-6-6.6-3.4 0-7 4-7 7.7 0 2.3-.3 2.4-4.7 2.1s-4.8-.5-5.1-3.3c-.5-4-2.9-6.5-6.3-6.5q-4.7 0-6.4 7.2c-.6 2.5-1.2 2.8-5 2.8-4 0-4.3-.2-4.9-3.2-1.2-6-5.8-8.6-10-5.5M69 14.6q0 3.6-4.4 1.8c-2-.8-2-2.8 0-4.9 2-2 4.4-.3 4.4 3.1m22.4-1.3q.9 4.4-3.3 3.2c-2.3-.7-2.8-3.4-1-5.2 1.6-1.6 3.6-.6 4.3 2m22.6.8q0 1.8-2 1.9c-3.1 0-3.5-.3-3.2-2.5.6-4.1 5.2-3.6 5.2.6m22 .3q.2 2.3-2.5 2.1-2.7.1-2.5-2.1a5 5 0 0 1 1.2-3.2c1.5-1.5 3.8.3 3.8 3.2m22-2.3c1.7 3 .6 4.7-2.4 4.2-2.8-.6-3.1-1.4-1.6-4.4q2-3.7 4 .2M45.8 14.3q.6 4.1-4.2 2.1c-1.9-.7-2.1-2.5-.4-4.2 2-2 4.3-.9 4.6 2.1m-8.3 10.5q2 7.6 6.5 5.2c3-1.6 2.4-6.2-.9-7q-2.3-.6-2.9-1.8c-.3-.9 2.1-1.2 9.1-1.2 9.1 0 9.4.1 10.6 2.6.6 1.4.9 2.9.6 3.4s.4 1.8 1.4 3.1c1.7 2.1 2.2 2.2 4.5 1.1 3.6-1.6 3.4-6.3-.3-7.2q-2.3-.6-2.9-1.8c-.3-.9 2.1-1.2 9.1-1.2 10.3 0 10.6.2 10.7 6.8q0 2.2 2.5 3.4c2.1.9 2.8.8 4.5-.7 1.1-1 2-2.4 2-3.1 0-2-2.9-4.4-4.5-3.8q-1.5.5-1.5-1c0-1.5 1.2-1.6 9.3-1.4l9.2.3 1 4.2c1.4 5.7 2.7 7 6 5.5s3.4-5.6.3-7.3c-1.3-.7-2.5-1.2-2.8-1.1q-.5 0-.8-.8c-.2-.6 3.2-1 9.1-1 10.3 0 10.6.2 10.7 6.8q0 2.2 2.6 3.4c2.3 1.1 2.9 1 4.5-1.1s1.8-2.6.5-4.5c-.8-1.2-2.1-2-3-2q-1.5 0-1.6-1.2c0-1.1 2-1.4 8.9-1.4 9.7 0 10.2.3 10.6 6.8a4.3 4.3 0 0 0 4.2 4.2c1.8 0 4.3-2.9 4.3-5 0-1.8-3.9-4.9-4.9-3.9q-.4.2-.8-.9c-.4-.9 2.1-1.2 10.1-1.2H174v3a11065 11065 0 0 0-10 126.7c0 1-15.8 1.3-75.5 1.3H13v-2.3c0-1.2 1.1-15 2.5-30.7l5-59 3.1-34.8.5-4.3 6.2.3 6.2.3zm143.4 36.4a4120 4120 0 0 1 9.7 77.5c-.1.1-5-.3-10.9-1l-10.7-1.1v-3c0-1.7 1.4-20.2 3-41.1l3.7-46.8A27 27 0 0 1 177 37c.3 0 2.1 10.9 3.9 24.2m-4.4 79.7c-.3.5-2.3 2.4-4.5 4.1l-4 3.2V140h4.6c2.5 0 4.3.4 3.9.9"/><path d="M34.1 45.2c-.8 2.1-7.2 75.8-7.1 81.9 0 1.5.6 2.9 1.3 3.2.6.2 28.2.5 61.2.6 47.2.1 60.4-.1 61.7-1.1 1.2-1.1 2.1-8.9 4.8-42.4 1.8-22.6 3-41.8 2.7-42.8-.6-1.5-6-1.6-62.2-1.6H35zm23.5 6.5-1.2 12.5-.6 6.8h-22l.6-3.8c.3-2 .8-7.6 1.2-12.5l.6-8.7h22zm24.7-1-1.1 12.7-.7 7.9-11-.2c-6-.1-11-.3-11-.4-.1-.1.3-5.7.9-12.5l.9-12.2h22.4zm24.3 5.5c-1.1 16-.2 14.8-11.2 14.9l-10.6.3c-1.4.1-1.4.1-.3-15.7l.7-9.7h22.1zm25-2.5c-1.4 16.5-1.8 18.5-3.3 17.9-.8-.3-5.8-.6-11-.6h-9.6l.7-8.3 1.2-12.5.6-4.2h22zm25-3-1.2 12.5-.6 7.7-11 .3-11 .3.7-11c.3-6.1.9-11.8 1.1-12.8.5-1.5 1.9-1.7 11.6-1.7h11zM54.8 82.2c-.3 4.6-.7 10.2-.7 12.5L54 99H31.7l.7-9.3c.4-5 1-10.7 1.3-12.5l.5-3.2h21.3zm24.8 2.5c-1 15.6.1 14.3-12.8 14.3h-11l.6-5.8 1.2-12.5.6-6.7h22zm25-3-1.2 12.5-.6 4.8H80.7l.7-8.3 1.2-12.5.6-4.2h22zm25.1-4.5c-.3 1.8-.9 7.5-1.3 12.5l-.7 9.3h-22.2l1.1-12.2c.6-6.8 1.2-12.4 1.3-12.6 0-.1 5.1-.2 11.2-.2h11.1zm23.9 6-.6 12.5V99h-11.6c-11.5 0-11.6 0-11.1-2.3.3-1.2.9-6.8 1.3-12.5l.7-10.2h22zm-101 27-1.3 13-.6 4.8H28.8l.6-4.3 1.2-13 .7-8.7h22zm25.1-2.5-1.3 13-.7 7.3h-22l.7-10.3c.4-5.6.9-11.4 1.2-13l.6-2.7h22.1zm24.9-3c-.3 1.6-.8 7.4-1.2 13l-.7 10.3H89.3c-10.4 0-11.4-.2-10.9-1.8.3-.9.8-6.8 1.2-13l.7-11.2h22.9zm24 7.5c-.4 5.7-.9 11.5-1.2 13l-.6 2.8h-22l.5-4.3c.4-2.3.9-8.1 1.3-13l.6-8.7h22.1zm25-2-1.2 13-.6 4.8h-22.1l.7-8.3 1.3-13 .6-4.7h21.9z"/></svg>